<svg width="1086" height="528" viewBox="0 0 1086 528" fill="none" xmlns="http://www.w3.org/2000/svg">
<path d="M494.442 319.125C488.194 303.832 486.967 287.085 488.124 270.606C490.826 232.143 483.137 193.491 465.638 158.786C444.322 116.514 409.646 82.4632 366.993 61.9215C324.34 41.3798 276.097 35.497 229.758 45.1865C183.418 54.8759 103.564 48.1578 72.7154 84.0685C41.8664 119.979 61.7486 196.509 59.1567 243.78C56.5648 291.051 69.6541 337.855 96.392 376.923C123.13 415.991 162.02 445.137 207.022 459.835C245.631 472.445 286.885 473.815 326.018 464.001C338.844 460.784 352.095 459.048 365.219 460.667L417.432 467.108C482.251 475.105 531.731 410.401 507.031 349.941L494.442 319.125Z" fill="url(#paint0_linear_124_123)"/>
<path d="M125.035 329.388V209.915H158.146L205.935 287.914H188.526L234.95 209.915H268.061L268.403 329.388H231.707L231.366 265.214H237.169L205.423 318.635H187.673L154.562 265.214H161.73V329.388H125.035ZM286.682 329.388V236.028H325.255V329.388H286.682ZM305.969 228.518C298.914 228.518 293.282 226.641 289.072 222.886C284.862 219.131 282.757 214.466 282.757 208.891C282.757 203.315 284.862 198.65 289.072 194.895C293.282 191.14 298.914 189.263 305.969 189.263C313.023 189.263 318.656 191.027 322.866 194.554C327.076 198.081 329.181 202.633 329.181 208.208C329.181 214.125 327.076 219.018 322.866 222.886C318.656 226.641 313.023 228.518 305.969 228.518ZM407.209 234.321C414.377 234.321 420.863 235.801 426.666 238.759C432.469 241.604 437.02 246.098 440.32 252.242C443.733 258.387 445.44 266.352 445.44 276.137V329.388H406.867V282.793C406.867 276.99 405.843 272.894 403.795 270.505C401.747 268.002 398.959 266.75 395.432 266.75C392.815 266.75 390.369 267.376 388.093 268.627C385.931 269.765 384.167 271.699 382.802 274.43C381.55 277.161 380.925 280.859 380.925 285.524V329.388H342.352V236.028H379.047V263.336L371.708 255.485C375.349 248.431 380.242 243.14 386.386 239.612C392.644 236.085 399.585 234.321 407.209 234.321Z" fill="white"/>
<path d="M545.27 333.192C538.319 333.192 532.01 331.802 526.343 329.022C520.782 326.134 516.398 321.697 513.19 315.709C509.982 309.613 508.378 301.807 508.378 292.29V243.85H544.628V286.035C544.628 292.237 545.644 296.568 547.676 299.027C549.708 301.487 552.488 302.716 556.017 302.716C558.155 302.716 560.133 302.182 561.951 301.112C563.876 299.936 565.427 298.065 566.603 295.498C567.779 292.825 568.367 289.35 568.367 285.073V243.85H604.617V331.588H570.132V306.245L577.029 313.142C573.928 319.986 569.49 325.065 563.716 328.38C558.048 331.588 551.9 333.192 545.27 333.192ZM663.041 333.192C650.957 333.192 641.547 330.305 634.811 324.53C628.074 318.649 624.706 309.667 624.706 297.584V224.121H660.955V297.263C660.955 299.936 661.65 302.021 663.041 303.518C664.538 305.015 666.355 305.764 668.494 305.764C671.595 305.764 674.322 304.962 676.674 303.358L685.336 328.54C682.556 330.144 679.187 331.321 675.231 332.069C671.381 332.818 667.318 333.192 663.041 333.192ZM612.676 275.128V248.662H678.92V275.128H612.676ZM694.472 331.588V243.85H730.722V331.588H694.472ZM712.597 236.793C705.967 236.793 700.674 235.028 696.718 231.5C692.761 227.971 690.783 223.587 690.783 218.347C690.783 213.107 692.761 208.723 696.718 205.195C700.674 201.666 705.967 199.901 712.597 199.901C719.227 199.901 724.52 201.559 728.477 204.874C732.433 208.189 734.411 212.466 734.411 217.706C734.411 223.266 732.433 227.864 728.477 231.5C724.52 235.028 719.227 236.793 712.597 236.793ZM807.741 242.246C814.477 242.246 820.572 243.637 826.026 246.417C831.479 249.09 835.757 253.314 838.858 259.088C842.066 264.862 843.67 272.348 843.67 281.544V331.588H807.42V287.799C807.42 282.346 806.457 278.496 804.533 276.251C802.608 273.898 799.988 272.722 796.673 272.722C794.214 272.722 791.915 273.31 789.776 274.486C787.744 275.556 786.087 277.373 784.804 279.94C783.627 282.506 783.039 285.981 783.039 290.366V331.588H746.789V243.85H781.275V269.514L774.378 262.136C777.8 255.506 782.398 250.534 788.172 247.219C794.053 243.904 800.576 242.246 807.741 242.246ZM920.364 242.246C927.1 242.246 933.195 243.637 938.649 246.417C944.102 249.09 948.38 253.314 951.481 259.088C954.689 264.862 956.293 272.348 956.293 281.544V331.588H920.043V287.799C920.043 282.346 919.08 278.496 917.156 276.251C915.231 273.898 912.611 272.722 909.296 272.722C906.837 272.722 904.538 273.31 902.399 274.486C900.367 275.556 898.71 277.373 897.427 279.94C896.25 282.506 895.662 285.981 895.662 290.366V331.588H859.412V212.573H895.662V269.514L887.001 262.136C890.423 255.506 895.021 250.534 900.795 247.219C906.676 243.904 913.199 242.246 920.364 242.246Z" fill="url(#paint1_linear_124_123)"/>
<path d="M1080 283.544C1080 310.131 1056.81 331.683 1028.21 331.683C999.602 331.683 976.414 310.131 976.414 283.544C976.414 256.957 999.602 235.404 1028.21 235.404C1056.81 235.404 1080 256.957 1080 283.544ZM1005.03 283.544C1005.03 295.439 1015.41 305.082 1028.21 305.082C1041 305.082 1051.38 295.439 1051.38 283.544C1051.38 271.649 1041 262.006 1028.21 262.006C1015.41 262.006 1005.03 271.649 1005.03 283.544Z" fill="url(#paint2_linear_124_123)"/>
<line x1="1069.65" y1="240.085" x2="1077.38" y2="246.838" stroke="#0EF167" stroke-width="15.5225" stroke-linecap="round"/>
<defs>
<linearGradient id="paint0_linear_124_123" x1="157.657" y1="76.839" x2="461.825" y2="416.88" gradientUnits="userSpaceOnUse">
<stop stop-color="#0EF167"/>
<stop offset="0.0001" stop-color="#0EF167"/>
<stop offset="1" stop-color="#1FF272" stop-opacity="0.3"/>
</linearGradient>
<linearGradient id="paint1_linear_124_123" x1="747.837" y1="175.588" x2="747.837" y2="345.366" gradientUnits="userSpaceOnUse">
<stop stop-color="#0EF167"/>
<stop offset="1" stop-color="#0EF167" stop-opacity="0.5"/>
</linearGradient>
<linearGradient id="paint2_linear_124_123" x1="1028.21" y1="235.404" x2="1028.21" y2="331.683" gradientUnits="userSpaceOnUse">
<stop stop-color="#0EF167"/>
<stop offset="1" stop-color="#0EF167" stop-opacity="0.5"/>
</linearGradient>
</defs>
</svg>
